<?xml version="1.0" encoding="UTF-8"?>
<svg width="24px" height="24px" viewBox="0 0 24 24" version="1.1" xmlns="http://www.w3.org/2000/svg" xmlns:xlink="http://www.w3.org/1999/xlink">
    <title>plus icon</title>
    <path d="M22.5,10.5 L13.5,10.5 L13.5,1.5 C13.5,0.6705 12.828,0 12,0 C11.172,0 10.5,0.6705 10.5,1.5 L10.5,10.5 L1.5,10.5 C0.672,10.5 0,11.1705 0,12 C0,12.8295 0.672,13.5 1.5,13.5 L10.5,13.5 L10.5,22.5 C10.5,23.3295 11.172,24 12,24 C12.828,24 13.5,23.3295 13.5,22.5 L13.5,13.5 L22.5,13.5 C23.328,13.5 24,12.8295 24,12 C24,11.1705 23.328,10.5 22.5,10.5"></path>
</svg>
